<svg width="960" height="620" viewBox="0 0 960 620" fill="none" xmlns="http://www.w3.org/2000/svg">
  <defs>
    <linearGradient id="bg" x1="0" y1="0" x2="960" y2="620" gradientUnits="userSpaceOnUse">
      <stop stop-color="#0F1733"/>
      <stop offset="1" stop-color="#111A3C"/>
    </linearGradient>
    <linearGradient id="panel" x1="0" y1="0" x2="1" y2="1">
      <stop stop-color="#212D54"/>
      <stop offset="1" stop-color="#141D3A"/>
    </linearGradient>
    <linearGradient id="accent" x1="0" y1="0" x2="1" y2="0">
      <stop stop-color="#7B74FF"/>
      <stop offset="1" stop-color="#4BE0FF"/>
    </linearGradient>
  </defs>

  <rect width="960" height="620" rx="20" fill="url(#bg)"/>
  <rect x="34" y="32" width="280" height="556" rx="16" fill="url(#panel)" stroke="#2D3A63"/>
  <rect x="338" y="32" width="588" height="556" rx="16" fill="url(#panel)" stroke="#2D3A63"/>

  <rect x="58" y="60" width="190" height="12" rx="6" fill="#A8B5EB"/>
  <rect x="58" y="84" width="146" height="10" rx="5" fill="#6978B8"/>

  <rect x="58" y="132" width="232" height="12" rx="6" fill="#CDD7FF"/>
  <rect x="58" y="154" width="232" height="8" rx="4" fill="#24335C"/>
  <rect x="146" y="149" width="18" height="18" rx="9" fill="url(#accent)"/>

  <rect x="58" y="206" width="232" height="12" rx="6" fill="#CDD7FF"/>
  <rect x="58" y="228" width="232" height="8" rx="4" fill="#24335C"/>
  <rect x="202" y="223" width="18" height="18" rx="9" fill="url(#accent)"/>

  <rect x="58" y="286" width="112" height="34" rx="17" fill="#1E2A4E"/>
  <rect x="178" y="286" width="112" height="34" rx="17" fill="url(#accent)"/>

  <rect x="370" y="60" width="220" height="12" rx="6" fill="#A8B5EB"/>
  <rect x="370" y="84" width="150" height="10" rx="5" fill="#6877B6"/>
  <rect x="370" y="122" width="524" height="210" rx="14" fill="#111A36" stroke="#2D3A63"/>

  <rect x="392" y="148" width="210" height="20" rx="10" fill="url(#accent)"/>
  <rect x="612" y="148" width="260" height="20" rx="10" fill="#1D294D"/>

  <rect x="392" y="188" width="480" height="16" rx="8" fill="#1D294D"/>
  <rect x="392" y="214" width="436" height="16" rx="8" fill="#1D294D"/>
  <rect x="392" y="240" width="392" height="16" rx="8" fill="#1D294D"/>

  <rect x="370" y="360" width="252" height="200" rx="14" fill="#111A36" stroke="#2D3A63"/>
  <rect x="642" y="360" width="252" height="200" rx="14" fill="#111A36" stroke="#2D3A63"/>

  <rect x="392" y="386" width="120" height="12" rx="6" fill="#A8B5EB"/>
  <rect x="392" y="408" width="200" height="14" rx="7" fill="#1D294D"/>
  <rect x="392" y="430" width="200" height="14" rx="7" fill="#1D294D"/>
  <rect x="392" y="452" width="172" height="14" rx="7" fill="#1D294D"/>

  <rect x="664" y="386" width="120" height="12" rx="6" fill="#A8B5EB"/>
  <rect x="664" y="408" width="200" height="14" rx="7" fill="#1D294D"/>
  <rect x="664" y="430" width="200" height="14" rx="7" fill="#1D294D"/>
  <rect x="664" y="452" width="172" height="14" rx="7" fill="#1D294D"/>
</svg>
